<?xml version="1.0" encoding="UTF-8"?>
<svg version="1.1" xmlns="http://www.w3.org/2000/svg" width="180" height="180">
<path d="M0 0 C1.10171539 -0.0071553 2.20343079 -0.01431061 3.33853149 -0.02168274 C4.54273743 -0.02437164 5.74694336 -0.02706055 6.98764038 -0.02983093 C8.89562912 -0.03968773 8.89562912 -0.03968773 10.84216309 -0.04974365 C15.05779773 -0.0707434 19.27343255 -0.08114428 23.48910522 -0.09111023 C24.9438008 -0.09515973 26.39849618 -0.09927671 27.85319138 -0.10346031 C34.69077887 -0.1225054 41.52835563 -0.13673616 48.36596453 -0.14507228 C56.24108206 -0.15483338 64.11591766 -0.18112602 71.99093592 -0.22157317 C78.08878929 -0.25181012 84.1865622 -0.26654843 90.28448904 -0.26985329 C93.92116724 -0.27219573 97.55754406 -0.28104972 101.19414139 -0.30631447 C105.25829826 -0.33409363 109.32183187 -0.32974103 113.38607788 -0.32279968 C114.57813843 -0.33560974 115.77019897 -0.3484198 116.99838257 -0.36161804 C127.2201063 -0.29816766 135.26643092 2.05492229 142.81723022 9.14717102 C148.16227558 15.22864485 150.68635695 21.54458535 150.72221375 29.5721283 C150.7329467 31.22470139 150.7329467 31.22470139 150.74389648 32.91065979 C150.74658539 34.11486572 150.74927429 35.31907166 150.75204468 36.55976868 C150.75861588 37.83176117 150.76518707 39.10375366 150.7719574 40.41429138 C150.79295715 44.62992602 150.80335802 48.84556084 150.81332397 53.06123352 C150.81737348 54.51592909 150.82149046 55.97062448 150.82567406 57.42531967 C150.84471914 64.26290716 150.8589499 71.10048392 150.86728603 77.93809283 C150.87704713 85.81321035 150.90333977 93.68804596 150.94378692 101.56306422 C150.97402387 107.66091758 150.98876217 113.7586905 150.99206704 119.85661733 C150.99440948 123.49329554 151.00326347 127.12967236 151.02852821 130.76626968 C151.05630737 134.83042656 151.05195477 138.89396017 151.04501343 142.95820618 C151.06422852 144.746297 151.06422852 144.746297 151.08383179 146.57051086 C151.0203814 156.79223459 148.66729146 164.83855922 141.57504272 172.38935852 C135.49356889 177.73440388 129.1776284 180.25848525 121.15008545 180.29434204 C120.04837006 180.30149734 118.94665466 180.30865265 117.81155396 180.31602478 C116.00524506 180.32005814 116.00524506 180.32005814 114.16244507 180.32417297 C112.89045258 180.33074417 111.61846008 180.33731537 110.30792236 180.34408569 C106.09228772 180.36508544 101.8766529 180.37548632 97.66098022 180.38545227 C96.20628465 180.38950178 94.75158927 180.39361876 93.29689407 180.39780235 C86.45930658 180.41684744 79.62172982 180.4310782 72.78412092 180.43941432 C64.90900339 180.44917542 57.03416779 180.47546806 49.15914953 180.51591522 C43.06129616 180.54615216 36.96352325 180.56089047 30.86559641 180.56419533 C27.2289182 180.56653778 23.59254139 180.57539177 19.95594406 180.60065651 C15.89178719 180.62843567 11.82825358 180.62408307 7.76400757 180.61714172 C6.57194702 180.62995178 5.37988647 180.64276184 4.15170288 180.65596008 C-6.07002085 180.5925097 -14.11634548 178.23941976 -21.66714478 171.14717102 C-27.01219013 165.06569719 -29.53627151 158.7497567 -29.5721283 150.72221375 C-29.5792836 149.62049835 -29.5864389 148.51878296 -29.59381104 147.38368225 C-29.59649994 146.17947632 -29.59918884 144.97527039 -29.60195923 143.73457336 C-29.60853043 142.46258087 -29.61510162 141.19058838 -29.62187195 139.88005066 C-29.6428717 135.66441602 -29.65327258 131.4487812 -29.66323853 127.23310852 C-29.66728803 125.77841295 -29.67140501 124.32371756 -29.67558861 122.86902237 C-29.6946337 116.03143488 -29.70886445 109.19385812 -29.71720058 102.35624921 C-29.72696168 94.48113169 -29.75325432 86.60629608 -29.79370147 78.73127782 C-29.82393842 72.63342446 -29.83867672 66.53565154 -29.84198159 60.43772471 C-29.84432403 56.8010465 -29.85317802 53.16466968 -29.87844276 49.52807236 C-29.90622192 45.46391549 -29.90186932 41.40038187 -29.89492798 37.33613586 C-29.91414307 35.54804504 -29.91414307 35.54804504 -29.93374634 33.72383118 C-29.87029595 23.50210745 -27.51720601 15.45578282 -20.42495728 7.90498352 C-14.34348345 2.55993816 -8.02754295 0.03585679 0 0 Z " fill="#915EFE" transform="translate(29.424957275390625,-0.1471710205078125)"/>
<path d="M0 0 C1.34888732 0.00015905 2.69778075 0.00584927 4.04663086 0.01586914 C5.10991859 0.01799156 5.10991859 0.01799156 6.19468689 0.02015686 C8.46699173 0.02577096 10.73919936 0.03832576 13.01147461 0.05102539 C14.54858257 0.05603858 16.08569206 0.0606018 17.62280273 0.06469727 C21.39823103 0.07574497 25.17358632 0.09301898 28.94897461 0.11352539 C31.68132151 6.08227817 34.14212338 12.09575408 36.39038086 18.26196289 C36.87112061 19.56807526 36.87112061 19.56807526 37.36157227 20.90057373 C38.41433746 23.76220497 39.46300122 26.62531918 40.51147461 29.48852539 C42.02028701 33.59849091 43.53116199 37.70769563 45.04272461 41.81665039 C45.43520889 42.88420563 45.82769318 43.95176086 46.23207092 45.05166626 C49.21881087 53.16311019 52.24840135 61.25791401 55.29272461 69.34790039 C56.17228586 71.68982798 57.05176266 74.03178728 57.93115234 76.3737793 C59.21657516 79.79679146 60.50406436 83.2189469 61.79837036 86.63861084 C63.00150956 89.81820435 64.19670534 93.00068186 65.39038086 96.18383789 C65.75204346 97.13280945 66.11370605 98.08178101 66.48632812 99.05950928 C66.81246094 99.93343323 67.13859375 100.80735718 67.47460938 101.70776367 C67.76086685 102.46614532 68.04712433 103.22452698 68.34205627 104.00588989 C68.94897461 106.11352539 68.94897461 106.11352539 68.94897461 110.11352539 C59.70897461 110.11352539 50.46897461 110.11352539 40.94897461 110.11352539 C36.94897461 101.11352539 36.94897461 101.11352539 32.94897461 89.11352539 C12.65397461 88.61852539 12.65397461 88.61852539 -8.05102539 88.11352539 C-9.04102539 91.74352539 -10.03102539 95.37352539 -11.05102539 99.11352539 C-12.37102539 102.74352539 -13.69102539 106.37352539 -15.05102539 110.11352539 C-24.29102539 110.11352539 -33.53102539 110.11352539 -43.05102539 110.11352539 C-40.80123017 99.98944691 -40.80123017 99.98944691 -39.36547852 96.18774414 C-39.04269928 95.32380035 -38.71992004 94.45985657 -38.38735962 93.56973267 C-38.03918182 92.65605927 -37.69100403 91.74238586 -37.33227539 90.80102539 C-36.77653336 89.3196962 -36.77653336 89.3196962 -36.20956421 87.80844116 C-34.99537086 84.57477379 -33.77316104 81.34419839 -32.55102539 78.11352539 C-30.83221911 73.54421078 -29.11750102 68.97336481 -27.40258789 64.40258789 C-26.96334991 63.23361969 -26.52411194 62.06465149 -26.07156372 60.86026001 C-22.95228062 52.54920532 -19.87510264 44.22344359 -16.82446289 35.88696289 C-16.40920349 34.7524469 -15.99394409 33.61793091 -15.56610107 32.44903564 C-13.95362341 28.04070471 -12.34254229 23.63187497 -10.73583984 19.22143555 C-9.63221476 16.19245063 -8.52543501 13.16463437 -7.41821289 10.13696289 C-7.089935 9.23215179 -6.7616571 8.3273407 -6.4234314 7.39511108 C-6.12377472 6.57692902 -5.82411804 5.75874695 -5.51538086 4.91577148 C-5.12502151 3.84412247 -5.12502151 3.84412247 -4.72677612 2.75082397 C-3.54553894 -0.11123429 -3.33383719 0.12404852 0 0 Z " fill="#FDFCFF" transform="translate(77.051025390625,34.886474609375)"/>
<path d="M0 0 C3.47380199 2.70043034 4.40426622 6.4145091 5.69921875 10.44140625 C5.9391304 11.16488754 6.17904205 11.88836884 6.42622375 12.6337738 C6.93037762 14.15965343 7.43021997 15.68696348 7.92602539 17.21557617 C8.68678827 19.56030639 9.46034745 21.90050156 10.23632812 24.24023438 C10.7247087 25.72371151 11.21236406 27.20742764 11.69921875 28.69140625 C11.93041916 29.39350723 12.16161957 30.09560822 12.39982605 30.81898499 C14 35.76554428 14 35.76554428 14 38 C5.09 38 -3.82 38 -13 38 C-9.62120189 26.73733964 -9.62120189 26.73733964 -7.7734375 21.40625 C-7.3815625 20.27445313 -6.9896875 19.14265625 -6.5859375 17.9765625 C-5.98652344 16.25566406 -5.98652344 16.25566406 -5.375 14.5 C-4.96765625 13.32179688 -4.5603125 12.14359375 -4.140625 10.9296875 C-1.13375235 2.2675047 -1.13375235 2.2675047 0 0 Z " fill="#9463FF" transform="translate(89,65)"/>
</svg>
